inDegrees=yes
name=ik_S52_A02_T02
DataType=double
version=3
OpenSimVersion=4.3-2021-08-27-4bc7ad9
endheader
time	pelvis_tilt	pelvis_list	pelvis_rotation	pelvis_tx	pelvis_ty	pelvis_tz	hip_flexion_r	hip_adduction_r	hip_rotation_r	knee_angle_r	knee_angle_r_beta	ankle_angle_r	subtalar_angle_r	mtp_angle_r	hip_flexion_l	hip_adduction_l	hip_rotation_l	knee_angle_l	knee_angle_l_beta	ankle_angle_l	subtalar_angle_l	mtp_angle_l	lumbar_extension	lumbar_bending	lumbar_rotation	arm_flex_r	arm_add_r	arm_rot_r	elbow_flex_r	pro_sup_r	wrist_flex_r	wrist_dev_r	arm_flex_l	arm_add_l	arm_rot_l	elbow_flex_l	pro_sup_l	wrist_flex_l	wrist_dev_l
0	0	0	0	0	0.9399999999999999	0	0	0	0	0	0	0	0	0	0	0	0	0	0	0	0	0	0	0	0	0	0	0	0	89.99999999963507	0	0	0	0	0	0	89.99999999869995	0	0
0.02	-0.3790173781078506	0.9721867112812751	94.43350218468555	0	0.9399999999999999	0	-2.030533377064415	-4.610650578011738	-4.861838330369881	1.17640308273355	0.02053210712431171	0	0	0	-3.301854708122661	-0.9535940780295097	2.488824484911111	0.02390454535404447	0.0004172130226203895	0	0	0	0	0	0	1.906129486501055	-1.906129486501055	0.3392235135572946	9.394186613147236	89.66077650600657	0	0	1.906129486501055	-1.906129486501055	0.3392235135572946	9.394186613147236	89.66077650513515	0	0
0.04	-0.4196053887850024	0.9440657290728752	94.45424004544938	0	0.9399999999999999	0	-1.918446874263778	-4.694881978053028	-4.847793121995984	1.473796890624742	0.02572260824705649	0	0	0	-3.228813479793532	-0.9080203913778305	2.516399445667046	0.1828599785744593	0.003191508696250603	0	0	0	0	0	0	2.766140211272577	-2.766140211272577	0.4992989160241602	12.4970764616035	89.50070111297748	0	0	2.766140211272577	-2.766140211272577	0.4992989160241602	12.4970764616035	89.50070111213607	0	0
0.06	-0.4213978743069333	0.9475913544716441	94.46896280454038	0	0.9399999999999999	0	-1.917021208808182	-4.727460688994381	-4.79169034421735	1.449982390499293	0.02530696681015082	0	0	0	-3.209506940980012	-0.9009143581096284	2.54888210314313	0.1797188292874855	0.003136685298896236	0	0	0	0	0	0	2.896882076513316	-2.896882076513316	0.5235103274961372	12.90877152695972	89.47648970293137	0	0	2.896882076513316	-2.896882076513316	0.5235103274961372	12.90877152695972	89.4764897020945	0	0
0.08	-0.4159540006576457	0.9715297597011286	94.5341114662773	0	0.9399999999999999	0	-1.967233736291052	-4.714507069336165	-4.79974748466337	1.416588944278215	0.02472414122500534	0	0	0	-3.204784980084024	-0.8765599658969726	2.655671214107182	0.2064261273110147	0.003602815583718196	0	0	0	0	0	0	3.012281723301308	-3.012281723301308	0.5450071162151338	13.32606465668792	89.45499291548062	0	0	3.012281723301308	-3.012281723301308	0.5450071162151338	13.32606465668792	89.45499291464776	0	0
0.1	-0.4059624794709454	1.021712190945203	94.55770843934927	0	0.9399999999999999	0	-2.147980011008704	-4.663469582991548	-4.823770384383613	1.049748851825726	0.018321573783389	0	0	0	-3.287785255415714	-0.8653162370452695	2.67277246701651	0.0729465245764476	0.001273157031745973	0	0	0	0	0	0	3.182029700352013	-3.182029700352013	0.5771972561005212	14.2235076458083	89.42280277750434	0	0	3.182029700352013	-3.182029700352013	0.5771972561005212	14.2235076458083	89.42280277667746	0	0
0.12	-0.4012231897353336	1.058494415296835	94.66472162312471	0	0.9399999999999999	0	-2.259289272290632	-4.636731374162816	-5.055848415179269	0.9739732479270494	0.01699904000267005	0	0	0	-3.306720398896652	-0.8728640296118636	2.79831718747956	0.07780756826005902	0.001357998249108266	0	0	0	0	0	0	3.33404049865077	-3.33404049865077	0.6048947735654728	14.63352971667028	89.39510526166356	0	0	3.33404049865077	-3.33404049865077	0.6048947735654728	14.63352971667028	89.39510526084185	0	0
0.14	-0.3825488128784002	1.054103462182512	94.63746151069319	0	0.9399999999999999	0	-2.281512406748623	-4.649424789846464	-5.15975403713687	0.9503752457887158	0.01658717716846346	0	0	0	-3.292197837945279	-0.8139950155579374	2.784248800656417	0.08068320229564947	0.001408187531111731	0	0	0	0	0	0	3.335319478519548	-3.335319478519548	0.6051397457210259	14.64197746965939	89.39486028952257	0	0	3.335319478519548	-3.335319478519548	0.6051397457210259	14.64197746965939	89.39486028870091	0	0
0.16	-0.3550817177437541	0.986636628491983	94.6136216613715	0	0.9399999999999999	0	-2.179374116556647	-4.669414671491131	-5.242560319966048	1.104978264645574	0.01928550888103853	0	0	0	-3.120548841693699	-0.8271238398062339	2.661622659619444	0.2906951132646431	0.005073586845925866	0	0	0	0	0	0	3.47947642356759	-3.47947642356759	0.6317992914305047	15.18362051403349	89.36820074538321	0	0	3.47947642356759	-3.47947642356759	0.6317992914305047	15.18362051403349	89.36820074456655	0	0
0.18	-0.385879799178675	0.9883294841939875	94.5907149589122	0	0.9399999999999999	0	-2.198814566819279	-4.75278980043141	-5.270850882350878	0.937652461731966	0.01636512269665294	0	0	0	-3.150811991973768	-0.8346577736604771	2.741817509440116	0.1697056054364418	0.002961921573956297	0	0	0	0	0	0	3.483455656424795	-3.483455656424795	0.6325639197173784	15.20984391835775	89.36743611714186	0	0	3.483455656424795	-3.483455656424795	0.6325639197173784	15.20984391835775	89.36743611632532	0	0
0.2	-0.3683516392507659	1.010910091021055	94.54583765335207	0	0.9399999999999999	0	-2.182942160672224	-4.768477109632199	-5.257361890133064	0.9343498437851769	0.01630748113954602	0	0	0	-3.152289643634955	-0.8208686084837866	2.763794526215904	0.1648852875346803	0.002877791155577736	0	0	0	0	0	0	3.48388072308217	-3.48388072308217	0.6326437197120378	15.21239551257955	89.36735631715196	0	0	3.48388072308217	-3.48388072308217	0.6326437197120378	15.21239551257955	89.3673563163354	0	0
0.22	-0.3929896081447131	1.081862856302134	94.52893690031695	0	0.9399999999999999	0	-2.214599962902212	-4.823126263699507	-5.284594726616003	0.9526668795365578	0.01662717372261312	0	0	0	-3.136257458292385	-0.8193458370812781	2.782653836647871	0.1695747336181962	0.00295963742982984	0	0	0	0	0	0	3.485365922952867	-3.485365922952867	0.6329272081214462	15.22193640823231	89.36707282875943	0	0	3.485365922952867	-3.485365922952867	0.6329272081214462	15.22193640823231	89.36707282794291	0	0
0.24	-0.4452442719673123	1.234367297515641	94.57724276421425	0	0.9399999999999999	0	-2.37236120307335	-4.866605141504546	-5.410892120713572	1.015147939183209	0.01771767393358215	0	0	0	-3.29476290993723	-0.765198748261778	2.868817794259654	0.2389122867617682	0.004169806027461717	0	0	0	0	0	0	4.161018032288091	-4.161018032288091	0.756060320316682	17.46260262163997	89.24393972378759	0	0	4.161018032288091	-4.161018032288091	0.756060320316682	17.46260262163997	89.24393972299414	0	0
0.26	-0.4659019437672394	1.371497982884079	94.65874150153419	0	0.9399999999999999	0	-2.515660053082864	-4.889775065854288	-5.499401960390169	0.9722062801776326	0.01696820059766617	0	0	0	-3.210227784514645	-0.5459528056787779	2.941524803285951	0.4801207278586753	0.008379687508205547	0	0	0	0	0	0	4.165574144715311	-4.165574144715311	0.7569250318293753	17.48989370802413	89.24307501232622	0	0	4.165574144715311	-4.165574144715311	0.7569250318293753	17.48989370802413	89.24307501153297	0	0
0.28	-0.3646739118357281	1.449766778752521	94.6943198439327	0	0.9399999999999999	0	-2.643131843994052	-4.77867002257474	-5.513449706417245	0.8086218032464634	0.01411311287006456	0	0	0	-2.932975844310568	-0.7469555285631131	2.78365723681193	0.8476318721319605	0.01479396701354628	0	0	0	0	0	0	4.171215697537625	-4.171215697537625	0.7579986324905558	17.52397612773867	89.24200141172881	0	0	4.171215697537625	-4.171215697537625	0.7579986324905558	17.52397612773867	89.24200141093574	0	0
0.3	-0.3136579935601606	1.500200176882565	94.67258453572671	0	0.9399999999999999	0	-2.735130828134642	-4.725398882498171	-5.468914785408174	0.7361930388838243	0.01284899245878537	0	0	0	-2.818116743774196	-0.7644989372008049	3.112010917523238	0.9568131933683486	0.01669954055079886	0	0	0	0	0	0	4.173271553561202	-4.173271553561202	0.7583890476110776	17.53628757428022	89.24161099663145	0	0	4.173271553561202	-4.173271553561202	0.7583890476110776	17.53628757428022	89.24161099583847	0	0
0.32	-0.2916978205687655	1.528361363989006	94.75533073178161	0	0.9399999999999999	0	-2.83849409710352	-4.696928963476826	-5.535030110927389	0.4818075383356913	0.008409127904886614	0	0	0	-2.56479097709511	-0.6781290783450994	3.700031439063034	1.366167340495337	0.02384411822485809	0	0	0	0	0	0	4.181006424155725	-4.181006424155725	0.7598642928480251	17.58331114790229	89.24013575148213	0	0	4.181006424155725	-4.181006424155725	0.7598642928480251	17.58331114790229	89.24013575068942	0	0
0.34	-0.3122053184868691	1.606046420067558	94.85537017928466	0	0.9399999999999999	0	-2.969380282604845	-4.71589168651954	-5.68838214273971	0.3991917720134805	0.006967210768505788	0	0	0	-2.194374622398905	-0.7979709730307148	3.35729760462945	2.063413707845609	0.03601336303269023	0	0	0	0	0	0	4.190735420328068	-4.190735420328068	0.761718644827317	17.64222546067284	89.23828139961294	0	0	4.190735420328068	-4.190735420328068	0.761718644827317	17.64222546067284	89.23828139882065	0	0
0.36	-0.3406636315810839	1.691176145890914	94.98168809779469	0	0.9399999999999999	0	-3.087855977386676	-4.783568749662237	-5.869156044155625	0.3125286229275284	0.00545465347680921	0	0	0	-2.299600758412169	-0.7767561999152216	3.451201340654867	2.229311462202653	0.03890882506788541	0	0	0	0	0	0	4.333186889417312	-4.333186889417312	0.7873388835960232	18.05603952577707	89.2126611623424	0	0	4.333186889417312	-4.333186889417312	0.7873388835960232	18.05603952577707	89.21266116155479	0	0
0.3800000000000001	-0.3084749081642473	1.810383286963534	95.11662021276437	0	0.9399999999999999	0	-3.204495600830864	-4.805531010673526	-6.035551485161578	0.2513728939277503	0.004387284649305703	0	0	0	-1.931686429785189	-0.8488054975805405	3.347907114079534	2.945535431886375	0.05140929152057041	0	0	0	0	0	0	4.339756993991603	-4.339756993991603	0.7885861963510925	18.09492146283418	89.21141384966138	0	0	4.339756993991603	-4.339756993991603	0.7885861963510925	18.09492146283418	89.21141384887397	0	0
0.4000000000000001	-0.2661232511981945	1.975402263404259	95.21242921630346	0	0.9399999999999999	0	-3.317192452512176	-4.818037837229801	-6.014850488179367	0.2237380239095521	0.003904965179127479	0	0	0	-1.610311370237529	-0.789769581084637	3.524582411754402	3.713134182839667	0.06480641705890132	0	0	0	0	0	0	4.346256952915254	-4.346256952915254	0.789817801915764	18.13309031867601	89.21018224416974	0	0	4.346256952915254	-4.346256952915254	0.789817801915764	18.13309031867601	89.21018224338259	0	0
0.4200000000000001	-0.2305687398851339	2.18970411730561	95.29117700936459	0	0.9399999999999999	0	-3.459006205826799	-4.859161247641509	-5.945743136084142	0.2252511196528306	0.003931373681745601	0	0	0	-1.166553929383838	-0.8320574683849353	3.303019479027967	4.848774141701252	0.08462707345824894	0	0	0	0	0	0	4.354723454739156	-4.354723454739156	0.7914273076941498	18.18330669996801	89.20857273848689	0	0	4.354723454739156	-4.354723454739156	0.7914273076941498	18.18330669996801	89.20857273770004	0	0
0.4400000000000001	-0.178932798876496	2.607120915517142	95.42299917030206	0	0.9399999999999999	0	-3.766251106423075	-4.911433669994961	-5.877654555315546	0.3164775989311361	0.005523576110154412	0	0	0	-0.7636043331241136	-0.8656123875194477	3.475575932541732	6.099848642668878	0.106462442687879	0	0	0	0	0	0	4.362207832655131	-4.362207832655131	0.7928469265821398	18.22730074595148	89.20715311968318	0	0	4.362207832655131	-4.362207832655131	0.7928469265821398	18.22730074595148	89.20715311889654	0	0
